<?xml version="1.0" standalone="no"?>
<!DOCTYPE svg PUBLIC "-//W3C//DTD SVG 20010904//EN"
 "http://www.w3.org/TR/2001/REC-SVG-20010904/DTD/svg10.dtd">
<svg version="1.0" xmlns="http://www.w3.org/2000/svg"
 width="180.000000pt" height="180.000000pt" viewBox="0 0 180.000000 180.000000"
 preserveAspectRatio="xMidYMid meet">
<metadata>
Created by potrace 1.14, written by Peter Selinger 2001-2017
</metadata>
<g transform="translate(0.000000,180.000000) scale(0.100000,-0.100000)"
fill="#000000" stroke="none">
<path d="M0 900 l0 -900 900 0 900 0 0 900 0 900 -900 0 -900 0 0 -900z m1101
800 c246 -64 454 -239 554 -467 96 -215 92 -467 -10 -682 -140 -295 -418 -471
-745 -471 -231 0 -443 89 -595 251 -263 279 -304 696 -100 1014 129 203 355
343 610 379 59 8 213 -4 286 -24z"/>
<path d="M680 1171 c-120 -39 -179 -127 -180 -264 0 -69 -3 -81 -25 -102 -29
-30 -69 -32 -110 -5 -64 42 -135 14 -135 -54 0 -28 8 -41 41 -69 92 -79 237
-70 320 20 47 49 62 92 68 192 6 82 9 95 30 112 32 26 73 24 105 -6 23 -21 26
-31 26 -93 0 -129 45 -213 139 -259 52 -25 154 -24 206 4 89 47 124 110 134
240 8 118 21 133 111 133 52 0 61 3 83 30 16 19 35 30 51 30 19 0 26 5 26 20
0 14 -7 20 -24 20 -14 0 -38 13 -56 31 -30 31 -33 31 -103 27 -86 -6 -141 -31
-189 -88 -43 -50 -58 -98 -58 -189 0 -63 -3 -75 -25 -96 -31 -32 -78 -33 -109
-2 -19 19 -24 37 -29 114 -8 123 -46 192 -130 234 -44 23 -128 33 -167 20z
m146 -61 c23 -12 54 -38 70 -61 24 -36 29 -53 34 -137 7 -109 21 -141 75 -166
44 -21 73 -20 112 4 49 29 60 56 66 153 6 112 37 169 110 206 47 23 48 23 68
5 20 -18 21 -18 34 -1 13 18 60 23 70 7 3 -6 3 -19 0 -30 -5 -16 -15 -20 -56
-20 -65 0 -121 -29 -143 -74 -10 -22 -16 -60 -16 -107 0 -128 -61 -206 -169
-217 -130 -12 -211 68 -211 207 0 107 -28 159 -97 182 -28 9 -43 8 -78 -5 -62
-24 -77 -52 -85 -167 -5 -82 -11 -104 -33 -137 -49 -75 -156 -102 -244 -63
-52 24 -72 56 -49 79 14 15 19 15 39 3 76 -48 108 -52 158 -18 50 33 69 79 69
165 0 105 32 162 110 196 49 21 116 20 166 -4z"/>
</g>
</svg>
